<?xml version="1.0" encoding="UTF-8"?>
<!DOCTYPE svg PUBLIC "-//W3C//DTD SVG 1.1//EN" "http://www.w3.org/Graphics/SVG/1.1/DTD/svg11.dtd">
<svg version="1.2" width="145.03mm" height="76.2mm" viewBox="0 0 14503 7620" preserveAspectRatio="xMidYMid" fill-rule="evenodd" stroke-width="28.222" stroke-linejoin="round" xmlns="http://www.w3.org/2000/svg" xmlns:ooo="http://xml.openoffice.org/svg/export" xmlns:xlink="http://www.w3.org/1999/xlink" xmlns:presentation="http://sun.com/xmlns/staroffice/presentation" xmlns:smil="http://www.w3.org/2001/SMIL20/" xmlns:anim="urn:oasis:names:tc:opendocument:xmlns:animation:1.0" xml:space="preserve">
 <defs class="ClipPathGroup">
  <clipPath id="presentation_clip_path" clipPathUnits="userSpaceOnUse">
   <rect x="0" y="0" width="14503" height="7620"/>
  </clipPath>
  <clipPath id="presentation_clip_path_shrink" clipPathUnits="userSpaceOnUse">
   <rect x="14" y="7" width="14474" height="7605"/>
  </clipPath>
 </defs>
 <defs class="TextShapeIndex">
  <g ooo:slide="id1" ooo:id-list="id3"/>
 </defs>
 <defs class="EmbeddedBulletChars">
  <g id="bullet-char-template-57356" transform="scale(0.00048828125,-0.00048828125)">
   <path d="M 580,1141 L 1163,571 580,0 -4,571 580,1141 Z"/>
  </g>
  <g id="bullet-char-template-57354" transform="scale(0.00048828125,-0.00048828125)">
   <path d="M 8,1128 L 1137,1128 1137,0 8,0 8,1128 Z"/>
  </g>
  <g id="bullet-char-template-10146" transform="scale(0.00048828125,-0.00048828125)">
   <path d="M 174,0 L 602,739 174,1481 1456,739 174,0 Z M 1358,739 L 309,1346 659,739 1358,739 Z"/>
  </g>
  <g id="bullet-char-template-10132" transform="scale(0.00048828125,-0.00048828125)">
   <path d="M 2015,739 L 1276,0 717,0 1260,543 174,543 174,936 1260,936 717,1481 1274,1481 2015,739 Z"/>
  </g>
  <g id="bullet-char-template-10007" transform="scale(0.00048828125,-0.00048828125)">
   <path d="M 0,-2 C -7,14 -16,27 -25,37 L 356,567 C 262,823 215,952 215,954 215,979 228,992 255,992 264,992 276,990 289,987 310,991 331,999 354,1012 L 381,999 492,748 772,1049 836,1024 860,1049 C 881,1039 901,1025 922,1006 886,937 835,863 770,784 769,783 710,716 594,584 L 774,223 C 774,196 753,168 711,139 L 727,119 C 717,90 699,76 672,76 641,76 570,178 457,381 L 164,-76 C 142,-110 111,-127 72,-127 30,-127 9,-110 8,-76 1,-67 -2,-52 -2,-32 -2,-23 -1,-13 0,-2 Z"/>
  </g>
  <g id="bullet-char-template-10004" transform="scale(0.00048828125,-0.00048828125)">
   <path d="M 285,-33 C 182,-33 111,30 74,156 52,228 41,333 41,471 41,549 55,616 82,672 116,743 169,778 240,778 293,778 328,747 346,684 L 369,508 C 377,444 397,411 428,410 L 1163,1116 C 1174,1127 1196,1133 1229,1133 1271,1133 1292,1118 1292,1087 L 1292,965 C 1292,929 1282,901 1262,881 L 442,47 C 390,-6 338,-33 285,-33 Z"/>
  </g>
  <g id="bullet-char-template-9679" transform="scale(0.00048828125,-0.00048828125)">
   <path d="M 813,0 C 632,0 489,54 383,161 276,268 223,411 223,592 223,773 276,916 383,1023 489,1130 632,1184 813,1184 992,1184 1136,1130 1245,1023 1353,916 1407,772 1407,592 1407,412 1353,268 1245,161 1136,54 992,0 813,0 Z"/>
  </g>
  <g id="bullet-char-template-8226" transform="scale(0.00048828125,-0.00048828125)">
   <path d="M 346,457 C 273,457 209,483 155,535 101,586 74,649 74,723 74,796 101,859 155,911 209,963 273,989 346,989 419,989 480,963 531,910 582,859 608,796 608,723 608,648 583,586 532,535 482,483 420,457 346,457 Z"/>
  </g>
  <g id="bullet-char-template-8211" transform="scale(0.00048828125,-0.00048828125)">
   <path d="M -4,459 L 1135,459 1135,606 -4,606 -4,459 Z"/>
  </g>
  <g id="bullet-char-template-61548" transform="scale(0.00048828125,-0.00048828125)">
   <path d="M 173,740 C 173,903 231,1043 346,1159 462,1274 601,1332 765,1332 928,1332 1067,1274 1183,1159 1299,1043 1357,903 1357,740 1357,577 1299,437 1183,322 1067,206 928,148 765,148 601,148 462,206 346,322 231,437 173,577 173,740 Z"/>
  </g>
 </defs>
 <g>
  <g id="id2" class="Master_Slide">
   <g id="bg-id2" class="Background"/>
   <g id="bo-id2" class="BackgroundObjects"/>
  </g>
 </g>
 <g class="SlideGroup">
  <g>
   <g id="container-id1">
    <g id="id1" class="Slide" clip-path="url(#presentation_clip_path)">
     <g class="Page">
      <g class="com.sun.star.drawing.CustomShape">
       <g id="id3">
        <rect class="BoundingBox" stroke="none" fill="none" x="-6" y="-1" width="14516" height="7624"/>
        <path fill="rgb(241,242,238)" stroke="none" d="M 1291,2526 C 1023,1584 2279,695 3535,695 3932,688 4342,779 4678,917 5000,490 5598,229 6270,229 6716,243 7191,370 7526,599 7768,222 8279,0 8830,0 9294,0 9717,162 9986,409 10295,155 10758,0 11242,0 12028,0 12693,398 12834,956 13594,1111 14145,1615 14145,2194 14145,2370 14104,2540 13990,2702 14313,2984 14508,3334 14508,3690 14508,4498 13641,5179 12525,5295 12525,6068 11665,6675 10590,6675 10221,6675 9871,6601 9562,6460 9280,7141 8387,7621 7385,7621 6640,7621 5934,7335 5511,6883 5114,7056 5323,7158 4187,7158 3253,7158 2393,6802 1943,6223 868,6209 317,5751 317,5172 317,4904 458,4660 713,4459 250,4290 -5,3955 -5,3570 -5,3030 559,2586 1291,2526 L 1291,2526 Z"/>
        <path fill="none" stroke="rgb(52,101,164)" d="M 1291,2526 C 1023,1584 2279,695 3535,695 3932,688 4342,779 4678,917 5000,490 5598,229 6270,229 6716,243 7191,370 7526,599 7768,222 8279,0 8830,0 9294,0 9717,162 9986,409 10295,155 10758,0 11242,0 12028,0 12693,398 12834,956 13594,1111 14145,1615 14145,2194 14145,2370 14104,2540 13990,2702 14313,2984 14508,3334 14508,3690 14508,4498 13641,5179 12525,5295 12525,6068 11665,6675 10590,6675 10221,6675 9871,6601 9562,6460 9280,7141 8387,7621 7385,7621 6640,7621 5934,7335 5511,6883 5114,7056 5323,7158 4187,7158 3253,7158 2393,6802 1943,6223 868,6209 317,5751 317,5172 317,4904 458,4660 713,4459 250,4290 -5,3955 -5,3570 -5,3030 559,2586 1291,2526 Z"/>
        <path fill="none" stroke="rgb(52,101,164)" d="M 1291,2526 C 1305,2614 1365,2713 1399,2794"/>
        <path fill="none" stroke="rgb(52,101,164)" d="M 4678,917 C 4832,984 5020,1076 5148,1167"/>
        <path fill="none" stroke="rgb(52,101,164)" d="M 7526,599 C 7473,673 7439,762 7406,846"/>
        <path fill="none" stroke="rgb(52,101,164)" d="M 9986,409 C 9885,493 9831,606 9764,709"/>
        <path fill="none" stroke="rgb(52,101,164)" d="M 12834,956 C 12848,1019 12915,1160 12888,1192"/>
        <path fill="none" stroke="rgb(52,101,164)" d="M 13990,2702 C 13876,2882 13721,3041 13506,3171"/>
        <path fill="none" stroke="rgb(52,101,164)" d="M 12532,5295 C 12586,5010 12277,4304 11417,4039"/>
        <path fill="none" stroke="rgb(52,101,164)" d="M 9562,6460 C 9616,6343 9636,6237 9650,6125"/>
        <path fill="none" stroke="rgb(52,101,164)" d="M 5518,6883 C 5410,6791 5343,6686 5276,6576"/>
        <path fill="none" stroke="rgb(52,101,164)" d="M 1943,6223 C 2071,6209 2198,6188 2319,6156"/>
        <path fill="none" stroke="rgb(52,101,164)" d="M 713,4459 C 935,4551 1190,4632 1560,4600"/>
       </g>
      </g>
     </g>
    </g>
   </g>
  </g>
 </g>
</svg>