<?xml version="1.0" encoding="UTF-8"?>
<!DOCTYPE svg PUBLIC "-//W3C//DTD SVG 1.1//EN" "http://www.w3.org/Graphics/SVG/1.1/DTD/svg11.dtd">
<svg version="1.2" width="127mm" height="127mm" viewBox="0 0 12700 12700" preserveAspectRatio="xMidYMid" fill-rule="evenodd" stroke-width="28.222" stroke-linejoin="round" xmlns="http://www.w3.org/2000/svg" xmlns:ooo="http://xml.openoffice.org/svg/export" xmlns:xlink="http://www.w3.org/1999/xlink" xmlns:presentation="http://sun.com/xmlns/staroffice/presentation" xmlns:smil="http://www.w3.org/2001/SMIL20/" xmlns:anim="urn:oasis:names:tc:opendocument:xmlns:animation:1.0" xml:space="preserve">
 <defs class="ClipPathGroup">
  <clipPath id="presentation_clip_path" clipPathUnits="userSpaceOnUse">
   <rect x="0" y="0" width="12700" height="12700"/>
  </clipPath>
  <clipPath id="presentation_clip_path_shrink" clipPathUnits="userSpaceOnUse">
   <rect x="12" y="12" width="12675" height="12675"/>
  </clipPath>
 </defs>
 <defs class="TextShapeIndex">
  <g ooo:slide="id1" ooo:id-list="id3 id4 id5 id6 id7 id8 id9 id10 id11"/>
 </defs>
 <defs class="EmbeddedBulletChars">
  <g id="bullet-char-template-57356" transform="scale(0.00048828125,-0.00048828125)">
   <path d="M 580,1141 L 1163,571 580,0 -4,571 580,1141 Z"/>
  </g>
  <g id="bullet-char-template-57354" transform="scale(0.00048828125,-0.00048828125)">
   <path d="M 8,1128 L 1137,1128 1137,0 8,0 8,1128 Z"/>
  </g>
  <g id="bullet-char-template-10146" transform="scale(0.00048828125,-0.00048828125)">
   <path d="M 174,0 L 602,739 174,1481 1456,739 174,0 Z M 1358,739 L 309,1346 659,739 1358,739 Z"/>
  </g>
  <g id="bullet-char-template-10132" transform="scale(0.00048828125,-0.00048828125)">
   <path d="M 2015,739 L 1276,0 717,0 1260,543 174,543 174,936 1260,936 717,1481 1274,1481 2015,739 Z"/>
  </g>
  <g id="bullet-char-template-10007" transform="scale(0.00048828125,-0.00048828125)">
   <path d="M 0,-2 C -7,14 -16,27 -25,37 L 356,567 C 262,823 215,952 215,954 215,979 228,992 255,992 264,992 276,990 289,987 310,991 331,999 354,1012 L 381,999 492,748 772,1049 836,1024 860,1049 C 881,1039 901,1025 922,1006 886,937 835,863 770,784 769,783 710,716 594,584 L 774,223 C 774,196 753,168 711,139 L 727,119 C 717,90 699,76 672,76 641,76 570,178 457,381 L 164,-76 C 142,-110 111,-127 72,-127 30,-127 9,-110 8,-76 1,-67 -2,-52 -2,-32 -2,-23 -1,-13 0,-2 Z"/>
  </g>
  <g id="bullet-char-template-10004" transform="scale(0.00048828125,-0.00048828125)">
   <path d="M 285,-33 C 182,-33 111,30 74,156 52,228 41,333 41,471 41,549 55,616 82,672 116,743 169,778 240,778 293,778 328,747 346,684 L 369,508 C 377,444 397,411 428,410 L 1163,1116 C 1174,1127 1196,1133 1229,1133 1271,1133 1292,1118 1292,1087 L 1292,965 C 1292,929 1282,901 1262,881 L 442,47 C 390,-6 338,-33 285,-33 Z"/>
  </g>
  <g id="bullet-char-template-9679" transform="scale(0.00048828125,-0.00048828125)">
   <path d="M 813,0 C 632,0 489,54 383,161 276,268 223,411 223,592 223,773 276,916 383,1023 489,1130 632,1184 813,1184 992,1184 1136,1130 1245,1023 1353,916 1407,772 1407,592 1407,412 1353,268 1245,161 1136,54 992,0 813,0 Z"/>
  </g>
  <g id="bullet-char-template-8226" transform="scale(0.00048828125,-0.00048828125)">
   <path d="M 346,457 C 273,457 209,483 155,535 101,586 74,649 74,723 74,796 101,859 155,911 209,963 273,989 346,989 419,989 480,963 531,910 582,859 608,796 608,723 608,648 583,586 532,535 482,483 420,457 346,457 Z"/>
  </g>
  <g id="bullet-char-template-8211" transform="scale(0.00048828125,-0.00048828125)">
   <path d="M -4,459 L 1135,459 1135,606 -4,606 -4,459 Z"/>
  </g>
  <g id="bullet-char-template-61548" transform="scale(0.00048828125,-0.00048828125)">
   <path d="M 173,740 C 173,903 231,1043 346,1159 462,1274 601,1332 765,1332 928,1332 1067,1274 1183,1159 1299,1043 1357,903 1357,740 1357,577 1299,437 1183,322 1067,206 928,148 765,148 601,148 462,206 346,322 231,437 173,577 173,740 Z"/>
  </g>
 </defs>
 <g>
  <g id="id2" class="Master_Slide">
   <g id="bg-id2" class="Background"/>
   <g id="bo-id2" class="BackgroundObjects"/>
  </g>
 </g>
 <g class="SlideGroup">
  <g>
   <g id="container-id1">
    <g id="id1" class="Slide" clip-path="url(#presentation_clip_path)">
     <g class="Page">
      <g class="com.sun.star.drawing.CustomShape">
       <g id="id3">
        <rect class="BoundingBox" stroke="none" fill="none" x="3917" y="3917" width="4868" height="4868"/>
        <path fill="rgb(253,181,21)" stroke="none" d="M 8783,6351 C 8783,6777 8671,7197 8457,7567 8244,7937 7937,8244 7567,8457 7197,8671 6777,8783 6351,8783 5924,8783 5504,8671 5134,8457 4764,8244 4457,7937 4244,7567 4030,7197 3918,6777 3918,6351 3918,5924 4030,5504 4244,5134 4457,4764 4764,4457 5134,4244 5504,4030 5924,3918 6350,3918 6777,3918 7197,4030 7567,4244 7937,4457 8244,4764 8457,5134 8671,5504 8783,5924 8783,6350 L 8783,6351 Z"/>
        <path fill="none" stroke="rgb(52,101,164)" d="M 8783,6351 C 8783,6777 8671,7197 8457,7567 8244,7937 7937,8244 7567,8457 7197,8671 6777,8783 6351,8783 5924,8783 5504,8671 5134,8457 4764,8244 4457,7937 4244,7567 4030,7197 3918,6777 3918,6351 3918,5924 4030,5504 4244,5134 4457,4764 4764,4457 5134,4244 5504,4030 5924,3918 6350,3918 6777,3918 7197,4030 7567,4244 7937,4457 8244,4764 8457,5134 8671,5504 8783,5924 8783,6350 L 8783,6351 Z"/>
       </g>
      </g>
      <g class="com.sun.star.drawing.CustomShape">
       <g id="id4">
        <rect class="BoundingBox" stroke="none" fill="none" x="6031" y="9313" width="641" height="3389"/>
        <path fill="rgb(253,181,21)" stroke="none" d="M 6351,12700 L 6032,12700 6032,9314 6670,9314 6670,12700 6351,12700 Z"/>
        <path fill="none" stroke="rgb(52,101,164)" d="M 6351,12700 L 6032,12700 6032,9314 6670,9314 6670,12700 6351,12700 Z"/>
       </g>
      </g>
      <g class="com.sun.star.drawing.CustomShape">
       <g id="id5">
        <rect class="BoundingBox" stroke="none" fill="none" x="6031" y="-1" width="641" height="3389"/>
        <path fill="rgb(253,181,21)" stroke="none" d="M 6351,3386 L 6032,3386 6032,0 6670,0 6670,3386 6351,3386 Z"/>
        <path fill="none" stroke="rgb(52,101,164)" d="M 6351,3386 L 6032,3386 6032,0 6670,0 6670,3386 6351,3386 Z"/>
       </g>
      </g>
      <g class="com.sun.star.drawing.CustomShape">
       <g id="id6">
        <rect class="BoundingBox" stroke="none" fill="none" x="-1" y="6067" width="3389" height="640"/>
        <path fill="rgb(253,181,21)" stroke="none" d="M 0,6387 L 0,6068 3386,6068 3386,6705 0,6705 0,6387 Z"/>
        <path fill="none" stroke="rgb(52,101,164)" d="M 0,6387 L 0,6068 3386,6068 3386,6705 0,6705 0,6387 Z"/>
       </g>
      </g>
      <g class="com.sun.star.drawing.CustomShape">
       <g id="id7">
        <rect class="BoundingBox" stroke="none" fill="none" x="9313" y="6067" width="3389" height="640"/>
        <path fill="rgb(253,181,21)" stroke="none" d="M 9314,6387 L 9314,6068 12700,6068 12700,6705 9314,6705 9314,6387 Z"/>
        <path fill="none" stroke="rgb(52,101,164)" d="M 9314,6387 L 9314,6068 12700,6068 12700,6705 9314,6705 9314,6387 Z"/>
       </g>
      </g>
      <g class="com.sun.star.drawing.CustomShape">
       <g id="id8">
        <rect class="BoundingBox" stroke="none" fill="none" x="1655" y="8267" width="2846" height="2848"/>
        <path fill="rgb(253,181,21)" stroke="none" d="M 1881,10887 L 1656,10662 4049,8268 4499,8719 2106,11113 1881,10887 Z"/>
        <path fill="none" stroke="rgb(52,101,164)" d="M 1881,10887 L 1656,10662 4049,8268 4499,8719 2106,11113 1881,10887 Z"/>
       </g>
      </g>
      <g class="com.sun.star.drawing.CustomShape">
       <g id="id9">
        <rect class="BoundingBox" stroke="none" fill="none" x="8238" y="1678" width="2848" height="2851"/>
        <path fill="rgb(253,181,21)" stroke="none" d="M 8464,4300 L 8239,4074 10634,1679 11084,2131 8690,4527 8464,4300 Z"/>
        <path fill="none" stroke="rgb(52,101,164)" d="M 8464,4300 L 8239,4074 10634,1679 11084,2131 8690,4527 8464,4300 Z"/>
       </g>
      </g>
      <g class="com.sun.star.drawing.CustomShape">
       <g id="id10">
        <rect class="BoundingBox" stroke="none" fill="none" x="8212" y="8237" width="2846" height="2846"/>
        <path fill="rgb(253,181,21)" stroke="none" d="M 10831,10856 L 10606,11081 8213,8688 8663,8238 11056,10631 10831,10856 Z"/>
        <path fill="none" stroke="rgb(52,101,164)" d="M 10831,10856 L 10606,11081 8213,8688 8663,8238 11056,10631 10831,10856 Z"/>
       </g>
      </g>
      <g class="com.sun.star.drawing.CustomShape">
       <g id="id11">
        <rect class="BoundingBox" stroke="none" fill="none" x="1626" y="1651" width="2846" height="2849"/>
        <path fill="rgb(253,181,21)" stroke="none" d="M 4245,4272 L 4020,4498 1627,2104 2077,1652 4470,4046 4245,4272 Z"/>
        <path fill="none" stroke="rgb(52,101,164)" d="M 4245,4272 L 4020,4498 1627,2104 2077,1652 4470,4046 4245,4272 Z"/>
       </g>
      </g>
     </g>
    </g>
   </g>
  </g>
 </g>
</svg>